<svg viewBox="0 0 800 900" xmlns="http://www.w3.org/2000/svg">
  <!-- Root SelectNode -->
  <rect x="350" y="10" width="120" height="40" rx="5" fill="#e6f7ff" stroke="#1890ff" stroke-width="2"/>
  <text x="410" y="35" font-family="Arial" font-size="14" text-anchor="middle">SelectNode</text>
  
  <!-- Select List -->
  <rect x="180" y="80" width="120" height="40" rx="5" fill="#fff7e6" stroke="#fa8c16" stroke-width="2"/>
  <text x="240" y="105" font-family="Arial" font-size="14" text-anchor="middle">SelectList</text>
  <line x1="350" y1="50" x2="240" y2="80" stroke="#666" stroke-width="1.5"/>
  <text x="290" y="70" font-family="Arial" font-size="12" fill="#666">selectList</text>
  
  <!-- From Clause -->
  <rect x="350" y="80" width="120" height="40" rx="5" fill="#e6fffb" stroke="#13c2c2" stroke-width="2"/>
  <text x="410" y="105" font-family="Arial" font-size="14" text-anchor="middle">FromClause</text>
  <line x1="410" y1="50" x2="410" y2="80" stroke="#666" stroke-width="1.5"/>
  <text x="420" y="70" font-family="Arial" font-size="12" fill="#666">fromClause</text>
  
  <!-- Where Clause -->
  <rect x="520" y="80" width="120" height="40" rx="5" fill="#f9f0ff" stroke="#722ed1" stroke-width="2"/>
  <text x="580" y="105" font-family="Arial" font-size="14" text-anchor="middle">WhereClause</text>
  <line x1="470" y1="50" x2="580" y2="80" stroke="#666" stroke-width="1.5"/>
  <text x="530" y="70" font-family="Arial" font-size="12" fill="#666">whereClause</text>
  
  <!-- Select Items -->
  <rect x="100" y="150" width="120" height="40" rx="5" fill="#fff7e6" stroke="#fa8c16" stroke-width="2"/>
  <text x="160" y="175" font-family="Arial" font-size="14" text-anchor="middle">ColumnRefNode</text>
  <text x="160" y="192" font-family="Arial" font-size="12" text-anchor="middle">(t1.name)</text>
  <line x1="240" y1="120" x2="160" y2="150" stroke="#666" stroke-width="1.5"/>
  
  <rect x="230" y="150" width="120" height="40" rx="5" fill="#fff7e6" stroke="#fa8c16" stroke-width="2"/>
  <text x="290" y="175" font-family="Arial" font-size="14" text-anchor="middle">ColumnRefNode</text>
  <text x="290" y="192" font-family="Arial" font-size="12" text-anchor="middle">(t2.department)</text>
  <line x1="240" y1="120" x2="290" y2="150" stroke="#666" stroke-width="1.5"/>
  
  <rect x="360" y="150" width="120" height="40" rx="5" fill="#fff7e6" stroke="#fa8c16" stroke-width="2"/>
  <text x="420" y="175" font-family="Arial" font-size="14" text-anchor="middle">FunctionNode</text>
  <text x="420" y="192" font-family="Arial" font-size="12" text-anchor="middle">(SUM(t3.salary))</text>
  <line x1="240" y1="120" x2="420" y2="150" stroke="#666" stroke-width="1.5"/>
  
  <!-- Base Table -->
  <rect x="230" y="220" width="120" height="40" rx="5" fill="#e6fffb" stroke="#13c2c2" stroke-width="2"/>
  <text x="290" y="245" font-family="Arial" font-size="14" text-anchor="middle">TableNode</text>
  <text x="290" y="262" font-family="Arial" font-size="12" text-anchor="middle">(employees as t1)</text>
  <line x1="410" y1="120" x2="290" y2="220" stroke="#666" stroke-width="1.5"/>
  <text x="350" y="180" font-family="Arial" font-size="12" fill="#666">baseTable</text>
  
  <!-- Joins -->
  <rect x="410" y="220" width="120" height="40" rx="5" fill="#e6fffb" stroke="#13c2c2" stroke-width="2"/>
  <text x="470" y="245" font-family="Arial" font-size="14" text-anchor="middle">JoinNode</text>
  <text x="470" y="262" font-family="Arial" font-size="12" text-anchor="middle">(INNER JOIN)</text>
  <line x1="410" y1="120" x2="470" y2="220" stroke="#666" stroke-width="1.5"/>
  <text x="450" y="180" font-family="Arial" font-size="12" fill="#666">joins[0]</text>
  
  <rect x="570" y="220" width="120" height="40" rx="5" fill="#e6fffb" stroke="#13c2c2" stroke-width="2"/>
  <text x="630" y="245" font-family="Arial" font-size="14" text-anchor="middle">JoinNode</text>
  <text x="630" y="262" font-family="Arial" font-size="12" text-anchor="middle">(INNER JOIN)</text>
  <line x1="410" y1="120" x2="630" y2="220" stroke="#666" stroke-width="1.5"/>
  <text x="530" y="180" font-family="Arial" font-size="12" fill="#666">joins[1]</text>
  
  <!-- Where Condition -->
  <rect x="520" y="290" width="120" height="40" rx="5" fill="#f9f0ff" stroke="#722ed1" stroke-width="2"/>
  <text x="580" y="315" font-family="Arial" font-size="14" text-anchor="middle">BinaryOpNode</text>
  <text x="580" y="332" font-family="Arial" font-size="12" text-anchor="middle">(EQ)</text>
  <line x1="580" y1="120" x2="580" y2="290" stroke="#666" stroke-width="1.5"/>
  
  <!-- Join Details -->
  <rect x="350" y="290" width="120" height="40" rx="5" fill="#e6fffb" stroke="#13c2c2" stroke-width="2"/>
  <text x="410" y="315" font-family="Arial" font-size="14" text-anchor="middle">TableNode</text>
  <text x="410" y="332" font-family="Arial" font-size="12" text-anchor="middle">(departments as t2)</text>
  <line x1="470" y1="260" x2="410" y2="290" stroke="#666" stroke-width="1.5"/>
  <text x="430" y="280" font-family="Arial" font-size="12" fill="#666">table</text>
  
  <rect x="470" y="360" width="120" height="40" rx="5" fill="#e6fffb" stroke="#13c2c2" stroke-width="2"/>
  <text x="530" y="385" font-family="Arial" font-size="14" text-anchor="middle">BinaryOpNode</text>
  <text x="530" y="402" font-family="Arial" font-size="12" text-anchor="middle">(EQ)</text>
  <line x1="470" y1="260" x2="530" y2="360" stroke="#666" stroke-width="1.5"/>
  <text x="510" y="320" font-family="Arial" font-size="12" fill="#666">condition</text>
  
  <rect x="590" y="360" width="120" height="40" rx="5" fill="#e6fffb" stroke="#13c2c2" stroke-width="2"/>
  <text x="650" y="385" font-family="Arial" font-size="14" text-anchor="middle">TableNode</text>
  <text x="650" y="402" font-family="Arial" font-size="12" text-anchor="middle">(salaries as t3)</text>
  <line x1="630" y1="260" x2="650" y2="360" stroke="#666" stroke-width="1.5"/>
  <text x="650" y="320" font-family="Arial" font-size="12" fill="#666">table</text>
  
  <rect x="650" y="430" width="120" height="40" rx="5" fill="#e6fffb" stroke="#13c2c2" stroke-width="2"/>
  <text x="710" y="455" font-family="Arial" font-size="14" text-anchor="middle">BinaryOpNode</text>
  <text x="710" y="472" font-family="Arial" font-size="12" text-anchor="middle">(AND)</text>
  <line x1="630" y1="260" x2="710" y2="430" stroke="#666" stroke-width="1.5"/>
  <text x="680" y="355" font-family="Arial" font-size="12" fill="#666">condition</text>
  
  <!-- First Join condition details -->
  <rect x="400" y="430" width="120" height="40" rx="5" fill="#e6fffb" stroke="#13c2c2" stroke-width="2"/>
  <text x="460" y="455" font-family="Arial" font-size="14" text-anchor="middle">ColumnRefNode</text>
  <text x="460" y="472" font-family="Arial" font-size="12" text-anchor="middle">(t1.dept_id)</text>
  <line x1="530" y1="400" x2="460" y2="430" stroke="#666" stroke-width="1.5"/>
  <text x="500" y="420" font-family="Arial" font-size="12" fill="#666">left</text>
  
  <rect x="530" y="430" width="120" height="40" rx="5" fill="#e6fffb" stroke="#13c2c2" stroke-width="2"/>
  <text x="590" y="455" font-family="Arial" font-size="14" text-anchor="middle">ColumnRefNode</text>
  <text x="590" y="472" font-family="Arial" font-size="12" text-anchor="middle">(t2.id)</text>
  <line x1="530" y1="400" x2="590" y2="430" stroke="#666" stroke-width="1.5"/>
  <text x="560" y="420" font-family="Arial" font-size="12" fill="#666">right</text>
  
  <!-- Second Join condition details -->
  <rect x="590" y="500" width="120" height="40" rx="5" fill="#e6fffb" stroke="#13c2c2" stroke-width="2"/>
  <text x="650" y="525" font-family="Arial" font-size="14" text-anchor="middle">BinaryOpNode</text>
  <text x="650" y="542" font-family="Arial" font-size="12" text-anchor="middle">(EQ)</text>
  <line x1="710" y1="470" x2="650" y2="500" stroke="#666" stroke-width="1.5"/>
  <text x="680" y="490" font-family="Arial" font-size="12" fill="#666">left</text>
  
  <rect x="720" y="500" width="120" height="40" rx="5" fill="#e6fffb" stroke="#13c2c2" stroke-width="2"/>
  <text x="780" y="525" font-family="Arial" font-size="14" text-anchor="middle">BinaryOpNode</text>
  <text x="780" y="542" font-family="Arial" font-size="12" text-anchor="middle">(GT)</text>
  <line x1="710" y1="470" x2="780" y2="500" stroke="#666" stroke-width="1.5"/>
  <text x="750" y="490" font-family="Arial" font-size="12" fill="#666">right</text>
  
  <!-- Where condition details -->
  <rect x="450" y="570" width="120" height="40" rx="5" fill="#f9f0ff" stroke="#722ed1" stroke-width="2"/>
  <text x="510" y="595" font-family="Arial" font-size="14" text-anchor="middle">ColumnRefNode</text>
  <text x="510" y="612" font-family="Arial" font-size="12" text-anchor="middle">(t1.status)</text>
  <line x1="580" y1="330" x2="510" y2="570" stroke="#666" stroke-width="1.5" stroke-dasharray="5,5"/>
  <text x="540" y="450" font-family="Arial" font-size="12" fill="#666">left</text>
  
  <rect x="580" y="570" width="120" height="40" rx="5" fill="#f9f0ff" stroke="#722ed1" stroke-width="2"/>
  <text x="640" y="595" font-family="Arial" font-size="14" text-anchor="middle">LiteralNode</text>
  <text x="640" y="612" font-family="Arial" font-size="12" text-anchor="middle">('active')</text>
  <line x1="580" y1="330" x2="640" y2="570" stroke="#666" stroke-width="1.5" stroke-dasharray="5,5"/>
  <text x="640" y="450" font-family="Arial" font-size="12" fill="#666">right</text>
  
  <!-- Group By, Having, Order By, Limit -->
  <rect x="40" y="640" width="120" height="40" rx="5" fill="#f6ffed" stroke="#52c41a" stroke-width="2"/>
  <text x="100" y="665" font-family="Arial" font-size="14" text-anchor="middle">GroupByNode</text>
  <line x1="410" y1="50" x2="100" y2="640" stroke="#666" stroke-width="1.5" stroke-dasharray="5,5"/>
  <text x="250" y="350" font-family="Arial" font-size="12" fill="#666">groupByClause</text>
  
  <rect x="170" y="640" width="120" height="40" rx="5" fill="#fff2e8" stroke="#fa541c" stroke-width="2"/>
  <text x="230" y="665" font-family="Arial" font-size="14" text-anchor="middle">HavingNode</text>
  <line x1="410" y1="50" x2="230" y2="640" stroke="#666" stroke-width="1.5" stroke-dasharray="5,5"/>
  <text x="320" y="350" font-family="Arial" font-size="12" fill="#666">havingClause</text>
  
  <rect x="300" y="640" width="120" height="40" rx="5" fill="#e6f7ff" stroke="#1890ff" stroke-width="2"/>
  <text x="360" y="665" font-family="Arial" font-size="14" text-anchor="middle">OrderByNode</text>
  <line x1="410" y1="50" x2="360" y2="640" stroke="#666" stroke-width="1.5" stroke-dasharray="5,5"/>
  <text x="385" y="350" font-family="Arial" font-size="12" fill="#666">orderByClause</text>
  
  <rect x="430" y="640" width="120" height="40" rx="5" fill="#fcf4ff" stroke="#9254de" stroke-width="2"/>
  <text x="490" y="665" font-family="Arial" font-size="14" text-anchor="middle">LimitNode</text>
  <text x="490" y="682" font-family="Arial" font-size="12" text-anchor="middle">(10)</text>
  <line x1="410" y1="50" x2="490" y2="640" stroke="#666" stroke-width="1.5" stroke-dasharray="5,5"/>
  <text x="450" y="350" font-family="Arial" font-size="12" fill="#666">limitClause</text>
  
  <!-- Group By details -->
  <rect x="10" y="720" width="80" height="40" rx="5" fill="#f6ffed" stroke="#52c41a" stroke-width="2"/>
  <text x="50" y="745" font-family="Arial" font-size="12" text-anchor="middle">ColumnRefNode</text>
  <text x="50" y="762" font-family="Arial" font-size="10" text-anchor="middle">(t1.name)</text>
  <line x1="100" y1="680" x2="50" y2="720" stroke="#666" stroke-width="1.5"/>
  
  <rect x="100" y="720" width="80" height="40" rx="5" fill="#f6ffed" stroke="#52c41a" stroke-width="2"/>
  <text x="140" y="745" font-family="Arial" font-size="12" text-anchor="middle">ColumnRefNode</text>
  <text x="140" y="762" font-family="Arial" font-size="10" text-anchor="middle">(t2.department)</text>
  <line x1="100" y1="680" x2="140" y2="720" stroke="#666" stroke-width="1.5"/>
  
  <!-- Having details -->
  <rect x="190" y="720" width="80" height="40" rx="5" fill="#fff2e8" stroke="#fa541c" stroke-width="2"/>
  <text x="230" y="745" font-family="Arial" font-size="12" text-anchor="middle">BinaryOpNode</text>
  <text x="230" y="762" font-family="Arial" font-size="10" text-anchor="middle">(GT)</text>
  <line x1="230" y1="680" x2="230" y2="720" stroke="#666" stroke-width="1.5"/>
  
  <rect x="145" y="780" width="80" height="40" rx="5" fill="#fff2e8" stroke="#fa541c" stroke-width="2"/>
  <text x="185" y="805" font-family="Arial" font-size="12" text-anchor="middle">FunctionNode</text>
  <text x="185" y="822" font-family="Arial" font-size="10" text-anchor="middle">(SUM(t3.salary))</text>
  <line x1="230" y1="760" x2="185" y2="780" stroke="#666" stroke-width="1.5"/>
  <text x="200" y="775" font-family="Arial" font-size="10" fill="#666">left</text>
  
  <rect x="235" y="780" width="80" height="40" rx="5" fill="#fff2e8" stroke="#fa541c" stroke-width="2"/>
  <text x="275" y="805" font-family="Arial" font-size="12" text-anchor="middle">LiteralNode</text>
  <text x="275" y="822" font-family="Arial" font-size="10" text-anchor="middle">(50000)</text>
  <line x1="230" y1="760" x2="275" y2="780" stroke="#666" stroke-width="1.5"/>
  <text x="260" y="775" font-family="Arial" font-size="10" fill="#666">right</text>
  
  <!-- Order By details -->
  <rect x="320" y="720" width="80" height="40" rx="5" fill="#e6f7ff" stroke="#1890ff" stroke-width="2"/>
  <text x="360" y="745" font-family="Arial" font-size="12" text-anchor="middle">OrderItem</text>
  <line x1="360" y1="680" x2="360" y2="720" stroke="#666" stroke-width="1.5"/>
  
  <rect x="320" y="780" width="80" height="40" rx="5" fill="#e6f7ff" stroke="#1890ff" stroke-width="2"/>
  <text x="360" y="805" font-family="Arial" font-size="12" text-anchor="middle">ColumnRefNode</text>
  <text x="360" y="822" font-family="Arial" font-size="10" text-anchor="middle">(t2.department)</text>
  <line x1="360" y1="760" x2="360" y2="780" stroke="#666" stroke-width="1.5"/>
  <text x="380" y="775" font-family="Arial" font-size="10" fill="#666">expr</text>
  
  <text x="400" y="800" font-family="Arial" font-size="10" fill="#666">direction=ASC</text>
</svg>